<svg version="1" xmlns="http://www.w3.org/2000/svg" width="1365.333" height="1365.333" viewBox="0 0 1024.000000 1024.000000"><path d="M116.9 34c-39.2 4.6-73 35.7-81 74.5-1.8 8.7-1.9 22.7-1.9 403s.1 394.3 1.9 403c7.1 34.4 34.1 62.7 69 72.4l9.6 2.6h795l9.6-2.6c34.9-9.7 61.9-38 69-72.4 1.8-8.7 1.9-22.7 1.9-403s-.1-394.3-1.9-403c-7.1-34.4-34.1-62.7-69-72.4l-9.6-2.6-393-.1c-216.1-.1-396 .2-399.6.6zM702 125.8c13 4 20.5 8.7 31 19.2s15.1 17.9 19.2 31l2.3 7.5.5 184.2.5 184.1 27.5-108c15.1-59.4 27.9-108.2 28.5-108.4.5-.2 16.3-.3 35-.2l34 .3L840.3 489c-22.1 84.4-41.1 155.5-42.3 157.9-4.3 9-12.2 19.9-19.2 26.8-7.5 7.2-12.1 10.1-19.5 12.3l-4.2 1.3-.3 76.1c-.4 75.9-.4 76.1-2.7 83.6-7.6 25-26.5 43.7-51.1 50.7-6.2 1.7-15.1 1.8-189 1.8s-182.8-.1-189-1.8c-24.6-7-43.5-25.7-51.1-50.7-2.3-7.5-2.3-7.7-2.7-84.3l-.3-76.7H160V335h109v65.9l4.3 1.2c6.2 1.6 15.3 6.7 19.8 11.2 2.3 2.1 5.3 6.4 6.7 9.5l2.7 5.7v83c0 92.8.3 88.7-7.1 97.3-3.5 4.1-17.7 12.2-21.4 12.2-5.2 0-5-1.2-5 33.3v32l7.9-.7c16.8-1.4 34.6-7.5 46.4-16 13.9-9.8 26.9-28.3 33.4-47.1 5.9-17.1 5.6-12.7 6-107 .3-62 .1-89.3-.7-95-3-20.8-14.8-45.1-29.4-60.3-13.5-14.3-32.7-22.9-55.2-25l-7.9-.7v-150l2.3-8c3.8-13.2 8.5-20.8 19.2-31.5 13.2-13.2 25.1-19.2 42-21 3.6-.4 86.4-.7 184-.6l177.5.1 7.5 2.3z"/><path d="M435 335.1c-11.5 1.9-22.4 9.9-28.2 20.5-6.1 11.2-5.8 3.7-5.8 156.5 0 136.6 0 139.8 2 146.1 3.4 11 11.4 20.2 21.9 25.2l6.6 3.1 73.3.3 73.2.3V624H465v-80l34.3-.2 34.2-.3v-64l-34.2-.3-34.3-.2v-80h113v-65l-68.7.1c-37.9.1-71.3.5-74.3 1zM617 335.5c0 2.4 79.8 306.4 81.6 311 5.9 15.1 18.7 30.1 30.5 35.9 7.8 3.8 18.9 6.3 23.3 5.2l2.6-.6-.1-66.8-.1-66.7-2.8 10.8c-1.5 6-3 11-3.2 11.2-.2.2-13.8-50.8-30.2-113.3-16.5-62.5-30.8-117-31.9-121l-1.9-7.2h-33.9c-30 0-33.9.2-33.9 1.5zM228.5 401.2c-.3.7-.4 50.8-.3 111.3l.3 110 17 .3c9.4.2 18.5 0 20.3-.3l3.2-.6V401.2l-2.2-.6c-1.3-.3-10.3-.6-20.1-.6-13.3 0-17.9.3-18.2 1.2zM503 755.1c-13.4 2.3-28.7 14.2-34.9 27.1-8.9 18.7-5.3 39.8 9.3 54.4 20 19.9 49 20.1 68.7.3 18.8-18.8 19.5-46.4 1.9-66.1-5.5-6.2-14.7-12.3-21.5-14.4-6.2-1.8-17-2.4-23.5-1.3z"/></svg>